<svg width="338" height="77" viewBox="0 0 338 77" fill="none" xmlns="http://www.w3.org/2000/svg">
<rect width="338" height="77" rx="10" fill="#F4F4F0"/>
<path d="M54.2563 45.6875H62.0688C61.8188 48.6667 60.9854 51.3229 59.5688 53.6562C58.1521 55.9688 56.1625 57.7917 53.6 59.125C51.0375 60.4583 47.9229 61.125 44.2563 61.125C41.4438 61.125 38.9125 60.625 36.6625 59.625C34.4125 58.6042 32.4854 57.1667 30.8813 55.3125C29.2771 53.4375 28.0479 51.1771 27.1938 48.5312C26.3604 45.8854 25.9438 42.9271 25.9438 39.6562V35.875C25.9438 32.6042 26.3708 29.6458 27.225 27C28.1 24.3542 29.35 22.0938 30.975 20.2188C32.6 18.3229 34.5479 16.875 36.8188 15.875C39.1104 14.875 41.6833 14.375 44.5375 14.375C48.1625 14.375 51.225 15.0417 53.725 16.375C56.225 17.7083 58.1625 19.5521 59.5375 21.9062C60.9333 24.2604 61.7875 26.9583 62.1 30H54.2875C54.0792 28.0417 53.6208 26.3646 52.9125 24.9688C52.225 23.5729 51.2042 22.5104 49.85 21.7812C48.4958 21.0312 46.725 20.6562 44.5375 20.6562C42.7458 20.6562 41.1833 20.9896 39.85 21.6562C38.5167 22.3229 37.4021 23.3021 36.5063 24.5938C35.6104 25.8854 34.9333 27.4792 34.475 29.375C34.0375 31.25 33.8188 33.3958 33.8188 35.8125V39.6562C33.8188 41.9479 34.0167 44.0312 34.4125 45.9062C34.8292 47.7604 35.4542 49.3542 36.2875 50.6875C37.1417 52.0208 38.225 53.0521 39.5375 53.7812C40.85 54.5104 42.4229 54.875 44.2563 54.875C46.4854 54.875 48.2875 54.5208 49.6625 53.8125C51.0583 53.1042 52.1104 52.0729 52.8188 50.7188C53.5479 49.3438 54.0271 47.6667 54.2563 45.6875ZM87.6063 53.7188V37.5938C87.6063 36.3854 87.3875 35.3438 86.95 34.4688C86.5125 33.5938 85.8458 32.9167 84.95 32.4375C84.075 31.9583 82.9708 31.7188 81.6375 31.7188C80.4083 31.7188 79.3458 31.9271 78.45 32.3438C77.5542 32.7604 76.8563 33.3229 76.3563 34.0312C75.8563 34.7396 75.6063 35.5417 75.6063 36.4375H68.1063C68.1063 35.1042 68.4292 33.8125 69.075 32.5625C69.7208 31.3125 70.6583 30.1979 71.8875 29.2188C73.1167 28.2396 74.5854 27.4688 76.2938 26.9062C78.0021 26.3438 79.9188 26.0625 82.0438 26.0625C84.5854 26.0625 86.8354 26.4896 88.7938 27.3438C90.7729 28.1979 92.325 29.4896 93.45 31.2188C94.5958 32.9271 95.1688 35.0729 95.1688 37.6562V52.6875C95.1688 54.2292 95.2729 55.6146 95.4813 56.8438C95.7104 58.0521 96.0333 59.1042 96.45 60V60.5H88.7313C88.3771 59.6875 88.0958 58.6562 87.8875 57.4062C87.7 56.1354 87.6063 54.9062 87.6063 53.7188ZM88.7 39.9375L88.7625 44.5938H83.3563C81.9604 44.5938 80.7313 44.7292 79.6688 45C78.6063 45.25 77.7208 45.625 77.0125 46.125C76.3042 46.625 75.7729 47.2292 75.4188 47.9375C75.0646 48.6458 74.8875 49.4479 74.8875 50.3438C74.8875 51.2396 75.0958 52.0625 75.5125 52.8125C75.9292 53.5417 76.5333 54.1146 77.325 54.5312C78.1375 54.9479 79.1167 55.1562 80.2625 55.1562C81.8042 55.1562 83.1479 54.8438 84.2938 54.2188C85.4604 53.5729 86.3771 52.7917 87.0438 51.875C87.7104 50.9375 88.0646 50.0521 88.1063 49.2188L90.5438 52.5625C90.2938 53.4167 89.8667 54.3333 89.2625 55.3125C88.6583 56.2917 87.8667 57.2292 86.8875 58.125C85.9292 59 84.7729 59.7188 83.4188 60.2812C82.0854 60.8438 80.5438 61.125 78.7938 61.125C76.5854 61.125 74.6167 60.6875 72.8875 59.8125C71.1583 58.9167 69.8042 57.7188 68.825 56.2188C67.8458 54.6979 67.3563 52.9792 67.3563 51.0625C67.3563 49.2708 67.6896 47.6875 68.3563 46.3125C69.0438 44.9167 70.0438 43.75 71.3563 42.8125C72.6896 41.875 74.3146 41.1667 76.2313 40.6875C78.1479 40.1875 80.3354 39.9375 82.7938 39.9375H88.7ZM110.613 33.9062V60.5H103.081V26.6875H110.175L110.613 33.9062ZM109.269 42.3438L106.831 42.3125C106.852 39.9167 107.185 37.7188 107.831 35.7188C108.498 33.7188 109.415 32 110.581 30.5625C111.769 29.125 113.185 28.0208 114.831 27.25C116.477 26.4583 118.31 26.0625 120.331 26.0625C121.956 26.0625 123.425 26.2917 124.738 26.75C126.071 27.1875 127.206 27.9062 128.144 28.9062C129.102 29.9062 129.831 31.2083 130.331 32.8125C130.831 34.3958 131.081 36.3438 131.081 38.6562V60.5H123.519V38.625C123.519 37 123.279 35.7188 122.8 34.7812C122.342 33.8229 121.665 33.1458 120.769 32.75C119.894 32.3333 118.8 32.125 117.488 32.125C116.196 32.125 115.04 32.3958 114.019 32.9375C112.998 33.4792 112.133 34.2188 111.425 35.1562C110.738 36.0938 110.206 37.1771 109.831 38.4062C109.456 39.6354 109.269 40.9479 109.269 42.3438ZM154.369 26.6875V32.1875H135.306V26.6875H154.369ZM140.806 18.4062H148.338V51.1562C148.338 52.1979 148.483 53 148.775 53.5625C149.088 54.1042 149.515 54.4688 150.056 54.6562C150.598 54.8438 151.233 54.9375 151.963 54.9375C152.483 54.9375 152.983 54.9062 153.463 54.8438C153.942 54.7812 154.327 54.7188 154.619 54.6562L154.65 60.4062C154.025 60.5938 153.296 60.7604 152.463 60.9062C151.65 61.0521 150.713 61.125 149.65 61.125C147.921 61.125 146.39 60.8229 145.056 60.2188C143.723 59.5938 142.681 58.5833 141.931 57.1875C141.181 55.7917 140.806 53.9375 140.806 51.625V18.4062ZM168.344 26.6875V60.5H160.781V26.6875H168.344ZM160.281 17.8125C160.281 16.6667 160.656 15.7188 161.406 14.9688C162.177 14.1979 163.24 13.8125 164.594 13.8125C165.927 13.8125 166.979 14.1979 167.75 14.9688C168.521 15.7188 168.906 16.6667 168.906 17.8125C168.906 18.9375 168.521 19.875 167.75 20.625C166.979 21.375 165.927 21.75 164.594 21.75C163.24 21.75 162.177 21.375 161.406 20.625C160.656 19.875 160.281 18.9375 160.281 17.8125ZM184.163 33.9062V60.5H176.631V26.6875H183.725L184.163 33.9062ZM182.819 42.3438L180.381 42.3125C180.402 39.9167 180.735 37.7188 181.381 35.7188C182.048 33.7188 182.965 32 184.131 30.5625C185.319 29.125 186.735 28.0208 188.381 27.25C190.027 26.4583 191.86 26.0625 193.881 26.0625C195.506 26.0625 196.975 26.2917 198.288 26.75C199.621 27.1875 200.756 27.9062 201.694 28.9062C202.652 29.9062 203.381 31.2083 203.881 32.8125C204.381 34.3958 204.631 36.3438 204.631 38.6562V60.5H197.069V38.625C197.069 37 196.829 35.7188 196.35 34.7812C195.892 33.8229 195.215 33.1458 194.319 32.75C193.444 32.3333 192.35 32.125 191.038 32.125C189.746 32.125 188.59 32.3958 187.569 32.9375C186.548 33.4792 185.683 34.2188 184.975 35.1562C184.288 36.0938 183.756 37.1771 183.381 38.4062C183.006 39.6354 182.819 40.9479 182.819 42.3438ZM231.481 53.7188V37.5938C231.481 36.3854 231.263 35.3438 230.825 34.4688C230.388 33.5938 229.721 32.9167 228.825 32.4375C227.95 31.9583 226.846 31.7188 225.513 31.7188C224.283 31.7188 223.221 31.9271 222.325 32.3438C221.429 32.7604 220.731 33.3229 220.231 34.0312C219.731 34.7396 219.481 35.5417 219.481 36.4375H211.981C211.981 35.1042 212.304 33.8125 212.95 32.5625C213.596 31.3125 214.533 30.1979 215.763 29.2188C216.992 28.2396 218.46 27.4688 220.169 26.9062C221.877 26.3438 223.794 26.0625 225.919 26.0625C228.46 26.0625 230.71 26.4896 232.669 27.3438C234.648 28.1979 236.2 29.4896 237.325 31.2188C238.471 32.9271 239.044 35.0729 239.044 37.6562V52.6875C239.044 54.2292 239.148 55.6146 239.356 56.8438C239.585 58.0521 239.908 59.1042 240.325 60V60.5H232.606C232.252 59.6875 231.971 58.6562 231.763 57.4062C231.575 56.1354 231.481 54.9062 231.481 53.7188ZM232.575 39.9375L232.638 44.5938H227.231C225.835 44.5938 224.606 44.7292 223.544 45C222.481 45.25 221.596 45.625 220.888 46.125C220.179 46.625 219.648 47.2292 219.294 47.9375C218.94 48.6458 218.763 49.4479 218.763 50.3438C218.763 51.2396 218.971 52.0625 219.388 52.8125C219.804 53.5417 220.408 54.1146 221.2 54.5312C222.013 54.9479 222.992 55.1562 224.138 55.1562C225.679 55.1562 227.023 54.8438 228.169 54.2188C229.335 53.5729 230.252 52.7917 230.919 51.875C231.585 50.9375 231.94 50.0521 231.981 49.2188L234.419 52.5625C234.169 53.4167 233.742 54.3333 233.138 55.3125C232.533 56.2917 231.742 57.2292 230.763 58.125C229.804 59 228.648 59.7188 227.294 60.2812C225.96 60.8438 224.419 61.125 222.669 61.125C220.46 61.125 218.492 60.6875 216.763 59.8125C215.033 58.9167 213.679 57.7188 212.7 56.2188C211.721 54.6979 211.231 52.9792 211.231 51.0625C211.231 49.2708 211.565 47.6875 212.231 46.3125C212.919 44.9167 213.919 43.75 215.231 42.8125C216.565 41.875 218.19 41.1667 220.106 40.6875C222.023 40.1875 224.21 39.9375 226.669 39.9375H232.575ZM254.581 33.1875V73.5H247.05V26.6875H253.988L254.581 33.1875ZM276.613 43.2812V43.9375C276.613 46.3958 276.321 48.6771 275.738 50.7812C275.175 52.8646 274.331 54.6875 273.206 56.25C272.102 57.7917 270.738 58.9896 269.113 59.8438C267.488 60.6979 265.613 61.125 263.488 61.125C261.383 61.125 259.54 60.7396 257.956 59.9688C256.394 59.1771 255.071 58.0625 253.988 56.625C252.904 55.1875 252.029 53.5 251.363 51.5625C250.717 49.6042 250.258 47.4583 249.988 45.125V42.5938C250.258 40.1146 250.717 37.8646 251.363 35.8438C252.029 33.8229 252.904 32.0833 253.988 30.625C255.071 29.1667 256.394 28.0417 257.956 27.25C259.519 26.4583 261.342 26.0625 263.425 26.0625C265.55 26.0625 267.435 26.4792 269.081 27.3125C270.727 28.125 272.113 29.2917 273.238 30.8125C274.363 32.3125 275.206 34.125 275.769 36.25C276.331 38.3542 276.613 40.6979 276.613 43.2812ZM269.081 43.9375V43.2812C269.081 41.7188 268.935 40.2708 268.644 38.9375C268.352 37.5833 267.894 36.3958 267.269 35.375C266.644 34.3542 265.842 33.5625 264.863 33C263.904 32.4167 262.748 32.125 261.394 32.125C260.06 32.125 258.915 32.3542 257.956 32.8125C256.998 33.25 256.196 33.8646 255.55 34.6562C254.904 35.4479 254.404 36.375 254.05 37.4375C253.696 38.4792 253.446 39.6146 253.3 40.8438V46.9062C253.55 48.4062 253.977 49.7812 254.581 51.0312C255.185 52.2812 256.04 53.2812 257.144 54.0312C258.269 54.7604 259.706 55.125 261.456 55.125C262.81 55.125 263.967 54.8333 264.925 54.25C265.883 53.6667 266.665 52.8646 267.269 51.8438C267.894 50.8021 268.352 49.6042 268.644 48.25C268.935 46.8958 269.081 45.4583 269.081 43.9375ZM290.681 33.1875V73.5H283.15V26.6875H290.087L290.681 33.1875ZM312.712 43.2812V43.9375C312.712 46.3958 312.421 48.6771 311.837 50.7812C311.275 52.8646 310.431 54.6875 309.306 56.25C308.202 57.7917 306.837 58.9896 305.212 59.8438C303.587 60.6979 301.712 61.125 299.587 61.125C297.483 61.125 295.64 60.7396 294.056 59.9688C292.494 59.1771 291.171 58.0625 290.087 56.625C289.004 55.1875 288.129 53.5 287.462 51.5625C286.817 49.6042 286.358 47.4583 286.087 45.125V42.5938C286.358 40.1146 286.817 37.8646 287.462 35.8438C288.129 33.8229 289.004 32.0833 290.087 30.625C291.171 29.1667 292.494 28.0417 294.056 27.25C295.619 26.4583 297.442 26.0625 299.525 26.0625C301.65 26.0625 303.535 26.4792 305.181 27.3125C306.827 28.125 308.212 29.2917 309.337 30.8125C310.462 32.3125 311.306 34.125 311.869 36.25C312.431 38.3542 312.712 40.6979 312.712 43.2812ZM305.181 43.9375V43.2812C305.181 41.7188 305.035 40.2708 304.744 38.9375C304.452 37.5833 303.994 36.3958 303.369 35.375C302.744 34.3542 301.942 33.5625 300.962 33C300.004 32.4167 298.848 32.125 297.494 32.125C296.16 32.125 295.015 32.3542 294.056 32.8125C293.098 33.25 292.296 33.8646 291.65 34.6562C291.004 35.4479 290.504 36.375 290.15 37.4375C289.796 38.4792 289.546 39.6146 289.4 40.8438V46.9062C289.65 48.4062 290.077 49.7812 290.681 51.0312C291.285 52.2812 292.14 53.2812 293.244 54.0312C294.369 54.7604 295.806 55.125 297.556 55.125C298.91 55.125 300.067 54.8333 301.025 54.25C301.983 53.6667 302.765 52.8646 303.369 51.8438C303.994 50.8021 304.452 49.6042 304.744 48.25C305.035 46.8958 305.181 45.4583 305.181 43.9375Z" fill="#00A87D"/>
</svg>
